<?xml version="1.0" encoding="UTF-8"?><svg id="a" xmlns="http://www.w3.org/2000/svg" viewBox="0 0 800 600.7"><path d="M297.02,166.33c-3.01,6.56-5.88,13.19-9.15,19.61-.67,1.31-2.8,2.42-4.38,2.61-9.51,1.16-19.05,2.03-28.58,3-12.84,1.31-25.69,2.63-38.53,3.94-1.01,.1-2.03,.27-3.04,.23-3.13-.1-4.65-1.01-3.82-4.83,1.76-8.09,4.93-15.47,9.94-21.97,1.45-1.88,4.03-2.88,6.61-4.63,.82-5.71,.82-5.78,7.61-5.72,3.01,.03,6.01,.43,9.55,.7,0-1.82,0-3.66,0-5.51,.09-17,.32-34,.15-51-.03-3.32-1.52-6.65-2.5-9.93-.45-1.51-1.51-2.83-1.96-4.34-1.08-3.64-.45-6.95,2.66-9.4,2.94-2.32,6.19-2.29,9.39-.64,5.61,2.89,8.05,8.04,8.33,13.9,.89,18.86,1.42,37.73,2.09,56.59,.04,1.08,0,2.17,0,4.27,7.2-17.29,21.69-21.57,36.94-25.14,27.73-6.49,55.76-10.87,84.19-12.25,19.43-.95,38.9-1.27,58.35-1.67,5.03-.1,10.07,.56,15.58,.9,.6-8.38,1.17-16.45,1.74-24.52,.45-6.39,.93-12.77,4.93-18.2,2.67-3.61,5.89-6.49,10.52-7.08,7.28-.93,11.92,5.05,9.34,11.94-.2,.54-.35,1.2-.74,1.56-5.84,5.43-4.98,12.5-4.97,19.45,.06,93.14,.06,186.28,.08,279.42,0,1.73,0,3.47,.88,5.4,.42-1.5,.84-2.99,1.36-4.86,4.36,.5,8.8,1.01,13.24,1.5,5.33,.58,7.07-.75,7.12-6.02,.34-34.86,.79-69.71,.77-104.57,0-8.81-1.3-17.65-2.54-26.4-.95-6.69-4.76-11.89-10.83-16.4,1.12,5.99,2.5,11.14,2.99,16.37,1.29,13.87,3.02,27.77,3.08,41.66,.11,27.29-.79,54.59-1.28,81.89,0,.43-.06,.87-.12,1.3-1.33,8.58-4.14,10.52-12.8,8.68V207.02c9.03,2.77,17.76,5.44,26.48,8.11,.13-.35,.26-.7,.4-1.05-1.48-.63-2.93-1.35-4.45-1.86-6.59-2.19-13.24-4.21-19.77-6.58-1.19-.43-2.68-2.21-2.69-3.38-.14-27.61-.1-55.22-.07-82.82,0-.41,.2-.82,.52-2.03,6.31,1.43,12.62,2.71,18.85,4.33,4.38,1.14,6.1,4.83,6.7,8.83,.99,6.56,1.57,13.19,2.38,20.29,2.8-.17,5.65-.41,8.51-.5,5.8-.19,11.61-.45,17.41-.38,2.94,.03,5.65,.75,6.72,4.35,.37,1.24,2.16,2.22,3.49,2.99,35.5,20.56,71.06,41.02,106.54,61.62,23.7,13.75,47.31,27.65,70.87,41.63,1.41,.84,2.87,3.03,2.88,4.59,.15,47.95,.11,95.9,.11,143.85,0,4.03-2.24,6.08-5.96,6.77-1.69,.31-3.4,.45-5.36,.69,0,3.35-.04,6.38,.03,9.41,.01,.66,.27,1.81,.62,1.9,4.63,1.09,3.36,4.84,3.4,7.75,.14,11.62-.06,23.25,.18,34.87,.08,3.76-1.27,4.77-4.79,4.61-5.19-.24-10.4-.06-15.01-.06-2.47,8.35-4.78,16.17-7.13,24.15,11.44,.43,23.54,.89,35.65,1.35l.12,.91c-.98,.22-1.96,.61-2.95,.65-40.36,1.28-80.72,3-121.1,3.65-45.9,.73-91.83,.54-137.74,.63-11.04,.02-22.08-.34-33.11-.79-2.97-.12-4.24,1.01-5.58,3.47-2.74,5.03-5.97,9.8-9.08,14.81,27.84,1.06,56.02,2.13,84.21,3.19-.01,.59-.02,1.18-.04,1.77-142.08,6.73-284.16,7.51-426.23,.38l-.04-2.06c20.67-.91,41.34-1.82,62.72-2.76-11.44-8.94-17.63-20.62-21.75-33.65-.29-.91-2.12-1.83-3.27-1.88-5.8-.28-11.62-.2-17.43-.4-5.44-.19-9.98-4.18-9.95-9.54,.08-15.69,.55-31.37,.89-47.06,0-.25,.27-.49,.6-1.06,88.47-1.05,177.12-2.11,265.77-3.16,.03-.58,.05-1.16,.08-1.74-1.7-.12-3.41-.36-5.11-.34-46.64,.51-93.28,1.04-139.91,1.57-36.32,.41-72.64,.83-108.97,1.2-7.31,.07-9.16-2.06-8.59-9.39,.86-10.98,1.59-21.98,2.65-32.94,.14-1.43,1.66-3.15,3-3.94,1.68-.98,4-.84,5.75-1.74,1.77-.92,3.99-2.22,4.61-3.88,2.43-6.52,7.11-10.95,12.71-14.43,6.27-3.89,12.75-7.47,19.32-10.83,3-1.54,4.5-3.07,4.44-6.79-.24-14.24-.28-28.48,.08-42.71,.17-6.48,1.26-12.97,2.28-19.39,1.37-8.58,6.62-13.9,14.82-16.48,2.88-.91,5.74-1.9,8.91-2.96v-54.3c4.35-.68,8.43-1.39,12.52-1.95,4.15-.57,5.69,1.36,5.65,5.49-.11,14.09,0,28.19,.03,42.28,0,1.41,0,2.81,0,4.22l1.09,.35c.4-.79,1.15-1.58,1.15-2.38,.05-15.25-.02-30.5,.01-45.75,0-3.62-.85-6.58-4.68-7.97,5.2,.83,5.59,1.45,6.18,9.79,6.86-3.23,13.63-6.41,20.39-9.6l.02-.62c-3.01,0-6.02,.09-9.02-.02-5.94-.21-11.87-.69-17.81-.72-3.52-.02-7.11,.12-9.86,3.16-.96,1.06-2.75,1.36-4.6,2.22,1.73-2.69,2.81-5.27,4.67-6.98,1.62-1.49,4.11-2.72,6.26-2.8,5.06-.18,10.16,.17,15.21,.7,17.96,1.91,35.54-1.99,53.29-3.28,21.85-1.59,43.69-3.48,65.57-4.48,23.94-1.09,47.92-1.22,71.88-1.96,8.77-.27,16.5-3.13,21.78-10.75,.91-1.31,2.01-2.49,2.92-3.79,5.36-7.63,12.43-9.87,21.29-7.02,7.95,2.56,15.96,4.94,24.64,6.89-1.43-1.51-2.61-3.46-4.33-4.48-11.93-7-24.6-12.36-38.11-15.38-3.87-.86-8.1-.27-12.16-.13-24.68,.84-49.35,1.75-74.03,2.63-5.08,.18-10.17,.71-15.22,.45-4.69-.23-8.53,.9-11.63,4.43,.22-1.02,.45-2.04,.71-3.23-.84,.07-1.42,.08-1.98,.17-16.73,2.6-33.43,5.37-50.18,7.74-8.17,1.16-16.44,1.53-24.66,2.35-2.67,.26-7.54,4.94-6.68,6.92,.82,1.9,3.17,3.68,5.23,4.37,3.37,1.13,7.13,2.1,10.6,1.78,11.79-1.1,23.66-2.14,35.25-4.46,9.66-1.94,19.54-4.13,27.78-10.28Zm123.86,264.58l.1,.1c-1.6-4.65-5.25-6.7-9.76-7.46-4.94-.84-8.02,2.3-10.35,5.83-7.54,11.45-6.57,35.62,1.58,46.87,4.55,6.29,11.71,6.68,15.81,1.89-1.54-.87-3.11-1.76-4.67-2.64,.06,.37,.12,.74,.18,1.11-1.77,.2-3.96,1.15-5.24,.45-3.89-2.11-2.89-5.14-.15-7.92-2.87-.82-7.07,1.79-7.02-3.67,.05-4.24,3.16-2.93,5.7-3.15-.84-2.04-1.64-4-2-4.89-2.37,0-5.02,.66-5.57-.14-1.14-1.66-1.18-4.09-1.75-6.55h6.08v-6.01c-1.73-.16-3.16-.28-5.59-.5,1.3-2.5,1.96-5.03,3.59-6.39,.75-.62,3.41,1.06,4.26,1.37,2.24-.89,4.2-2.43,5.67-2.06,1.71,.44,3.71,2.3,4.33,4,2.52,6.84,2.54,13.86,.38,20.9-1.02,3.32-1.73,6.69-6.33,6.64,1.2,1.31,2.1,2.29,3.04,3.31,2.96-4.3,6.31-2.04,9.6-.23,.41-1.7,.78-3.22,1.08-4.46h-8.54c1.9-3.01,2.76-5.98,4.53-6.7,1.66-.67,4.29,1.03,5.61,1.43v-6.69c-7.17-.19-7.28-.31-5.91-6.57h5.97v-5.96c-7.38,1.83-8.67,.99-8.79-5.76h7.84c-1.28-2.14-2.47-4.14-3.67-6.15Zm49.42-242.8h-7.36c-1.21-4.05-2.89-7.13-7.77-6.69-13.14,1.19-26.3,2.23-39.45,3.38-1.24,.11-2.45,.6-4.03,1.01,10.67,1.66,20.64,3.2,30.61,4.75,.09-.47,.18-.95,.26-1.42l-15.65-2.92c9.77-1.34,19.45-2.07,29.13-2.78,3.12-.23,4.29,1.54,4.68,4.83-4.46,0-8.66-.19-12.83,.08-1.93,.12-4.66-.11-4.65,3.23,.04,19.46,0,38.91,.24,58.37,.01,1.24,2.02,3.48,3.15,3.51,8.91,.29,17.84,.16,26.6,.16,.26-.66,.46-.92,.46-1.19,.06-20.04,.13-40.08,.08-60.12,0-1.08-1.07-2.15-1.65-3.23,.38-.77,1.12-1.54,1.1-2.3-.69-24.94-1.51-49.87-2.18-74.81-.2-7.51-.03-15.03-.03-22.23-4.96-1.73-4.57,1.17-4.61,3.36-.42,24.95-.8,49.9-1.15,74.85-.09,6.37-.01,12.74-.01,19.09,1.75,.37,3.4,.71,5.05,1.06Zm251.42,216.48c0-6.8,.2-12.89-.03-18.96-1.18-30.47-2.61-60.93-3.58-91.41-.16-5.1-1.71-8.1-6.03-10.8-55.32-34.58-110.53-69.34-165.79-104.01-2.63-1.65-5.46-2.99-8.61-4.69-.09,1.49-.17,2.33-.17,3.16,.02,68.28,.06,136.56,0,204.83,0,3.07,.69,4.17,4.02,4.45,15.61,1.3,31.19,2.97,46.79,4.51,19.63,1.94,39.25,3.9,58.88,5.82,17.03,1.67,34.06,3.33,51.1,4.96,7.62,.73,15.24,1.39,23.43,2.14Zm-449.56,6.01c-.14-.99-.34-1.7-.32-2.39,.62-20.46,1.24-40.93,1.9-61.39,.69-21.63,1.51-43.25,2.05-64.88,.13-5.33-.95-10.58-3.94-14.29,.16,5.76,.66,12.07,.4,18.35-.25,6.07-1.06,12.15-2.03,18.16-2.9,17.92-5.29,35.83-4.88,54.09,.44,19.46,.04,38.93,.03,58.4,0,1.24,.18,2.48,.27,3.78,.91,.09,1.48,.19,2.04,.19,28.18-.16,56.36-.37,84.55-.41,2.93,0,3.05-1.94,3.88-3.71,5.97-12.68,11.37-25.69,18.23-37.87,3.67-6.52,9.32-12.25,15.06-17.18,7.23-6.2,15.76-5.84,23.09,.18,3.87,3.18,7.55,6.92,10.29,11.08,10.01,15.24,14.29,32.47,16.16,50.38,1.35,12.84,1.55,25.66-1.18,38.39,5.62-13.24,3.66-27.14,3.3-41.46h27.5c-.63-7.32-1.2-14.05-1.88-21.99-8.77,0-17.04-.11-25.3,.04-4.57,.08-6.74-1.68-5.99-6.67,13.81,.65,27.63,1.3,41.46,1.95l.19-1.22c-1.15-.25-2.29-.67-3.46-.73-12.03-.64-24.07-1.18-36.1-1.87-1.28-.07-3.18-.55-3.66-1.45-1.92-3.59-3.4-7.42-5.23-11.6,8.59,.4,16.44,.76,24.28,1.12,.03-.42,.05-.84,.08-1.26-6.58-.46-13.17-1.41-19.73-1.22-5.5,.16-7.66-2.73-9.48-7.6,6.89,.39,13.5,.63,20.09,1.19,4.09,.35,5.55-1.63,5.59-5.28,.04-3.63,0-7.26-.01-10.9-.03-7.9-2.13-9.5-10.53-7.65,0,4.96-.19,10.02,.17,15.04,.07,.94,2.25,2.17,3.61,2.42,.86,.16,2.89-1.25,2.89-1.96,.03-4.15-.39-8.3-.65-12.37-1.98-.27-3.49-.47-5-.67,6.24-2.61,7.79-1.51,7.8,4.63,0,3.63,.1,7.26,.08,10.89-.01,2.78-1.23,4.3-4.28,4.1-5.79-.38-11.6-.8-17.4-.84-2.71-.02-4.06-1.1-5.44-3.29-3.01-4.76-6.5-9.22-9.62-13.91-.88-1.33-1.66-3.01-1.7-4.56-.21-7.53-.19-15.07-.18-22.6,.03-17.12,.12-34.24,.09-51.36,0-1.36-.82-2.72-1.25-4.08-.52,.13-1.04,.26-1.56,.38v77.57c-7.52-5.78-9.68-7.42-15.15-7.76-13.17-.81-26.38-1.65-39.55-1.33-5.83,.14-11.88,2.45-17.32,4.91-7.9,3.56-14.33,9.44-19.41,16.45-1.7,2.34-2.03,5.66-2.99,8.53,3.02,.51,6.31,2.05,9.02,1.34,10.32-2.7,20.63-5.62,30.59-9.41,9.99-3.8,19.31-9.37,29.36-12.98,11.22-4.03,22.77,.4,29.07,10.05-11.43-5.22-20.39-.86-28.2,6.76-4.12,4.02-7.88,8.55-11.14,13.3-8.26,12.05-13.63,25.51-18.21,39.31-.45,1.36-1.91,3.25-3.04,3.35-4.39,.39-8.84,.16-13.86,.16v-16.07c-.99,.69-1.16,1.37-1.27,2.05-1.95,12.13-6.76,15.21-18,10.19-9.71-4.34-19.59-4.78-29.8-3.92-4.74,.4-9.47,.91-14.36,1.38Zm60.14,77.88c-10.34,0-20.31,0-30.29,0-27.31-.03-54.61-.08-81.92-.1-1.93,0-4-.58-4.89,2.25-3.79,11.93-9.23,22.98-18.57,31.98h151.99c-2.19-2.95-4.52-5.4-6.05-8.29-3.42-6.48-6.12-13.61-16.47-9.94l.65-1.38c3.08-.17,6.15-.35,9.59-.54-1.47-5.1-2.82-9.77-4.04-13.99Zm-70.43-67.25c0-3.17-.02-5.46,0-7.74,.23-24.12,.5-48.23,.69-72.35,.14-18.74,.31-37.48,.21-56.22-.06-12.52-4.95-18.69-17.21-20.69-10.85-1.78-21.87-2.53-32.83-3.62-2.47-.25-4.98-.04-7.47-.04l-.2,1.35c2.81,.71,5.74,1.15,8.39,2.23,1.61,.66,3.88,2.3,3.91,3.55,.05,1.68-1.45,3.82-2.9,4.98-1.31,1.05-3.46,1.05-4.59,1.35-1.65,6.56-3.22,12.83-4.87,19.07-.07,.26-.98,.29-1.21,.35-1.35-4-2.56-7.8-3.92-11.54-.83-2.3-1.89-4.51-3.12-7.43-.24,0-1.56,.16-2.83-.03-2.93-.44-5.17-1.66-5.53-5.08-.36-3.42,1.98-3.99,4.42-4.75,2.91-.91,5.76-2.02,8.64-3.05l-.37-1.18c-2.4,.36-4.84,.52-7.18,1.1-11.47,2.84-23.04,5.41-34.33,8.85-7.62,2.32-12.27,8.08-13.39,16.19-.52,3.73-1.03,7.5-1.05,11.26-.23,40.68-.36,81.35-.5,122.03,0,.54,.24,1.09,.33,1.42h116.93Zm-51.39,64.34c28.47,0,56.94,0,85.41,0,10.31,0,20.63,.07,30.94-.08,1.33-.02,2.65-1.17,3.97-1.8-.85-1.03-1.49-2.5-2.58-3.03-5.99-2.88-11.96-5.9-18.19-8.18-24.83-9.11-50.02-8.27-75.35-2.18-10.54,2.53-21,6.12-32.07,4.71-7.74-.99-15.43-2.48-23.11-3.92-20.93-3.92-41.9-6.35-63.08-2.1-8.68,1.74-17.32,3.77-24.61,9.18-1.19,.88-2.65,3.17-2.26,4.02,.66,1.44,2.56,2.56,4.18,3.23,1.25,.52,2.86,.17,4.31,.17,37.48,0,74.95,0,112.43,0ZM384.53,126.2l-.38-1.26c9.62-2.8,19.23-5.61,28.85-8.41-31.08,.41-61.89,2.84-92.2,9.24-12.13,2.56-24.12,6.17-35.79,10.36-9.88,3.55-14.73,12.01-17.14,22.46,6.64-.93,12.89-1.81,19.4-2.73,1.03-11.89,9.08-17.25,19.1-20.69,2.32-.8,4.71-1.59,7.13-1.87,15.68-1.83,31.38-3.55,47.08-5.21,4.49-.47,9.02-.61,14.27-.95-4.55,3.66-10.14,4.74-12.94,11.53,31.36-2.34,61.78-6.33,91.05,4.72,4.85-9.25,4.26-10.76-4.98-14.06-.54-.19-1.11-.33-1.66-.5-14.12-4.14-28.57-4.68-43.13-3.87-6.22,.35-12.44,.82-18.66,1.24Zm337.39,148.44q.12-7.68-5.65-10.93c-5.93-3.33-11.8-6.78-17.81-9.96-52.4-27.81-104.82-55.58-157.24-83.34-1.06-.56-2.21-.93-3.32-1.39l-.92,.9c.85,1.23,1.5,2.71,2.61,3.62,1.55,1.27,3.44,2.14,5.21,3.12,43.09,23.84,86.18,47.67,129.27,71.51,15.81,8.75,31.62,17.5,47.85,26.48Zm-258.39-20.18c0,1.86,0,3.15,0,4.45-.01,40.64-.02,81.27-.03,121.91,0,1.02-.11,2.08,.16,3.03,.2,.71,.92,1.78,1.44,1.81,3.48,.16,6.97,.08,10.45,.08-4.43-.14-3.23-3.53-3.22-5.69,.32-38.75,.73-77.5,1.12-116.24,.03-3.13,0-6.25,0-9.34h-9.93Zm21.51,210.67v-29.25h-35.37v30.64c12.11-.47,23.78-.93,35.37-1.38ZM214.41,202.6c-7.2,3.33-13.38,6.4-19.73,9.05-3.91,1.63-5.04,3.86-5.44,8.3-1.12,12.74,1.83,23.33,11.18,32.54,3.54,3.48,6.41,4.08,10.66,2.98,1.1-17.43,2.19-34.71,3.33-52.86Zm197.94,211.03c-7.68-9.02-16.1-8.73-22.81,.83-5.54,7.89-7.51,16.95-8.79,26.82,1.47-1.87,2.89-4.56,3.57-4.38,2.79,.72,6.54,1.68,7.67,3.77,1.14,2.11-.09,5.78-1.05,8.49-.19,.53-4.04,.28-5.91-.41-2.91-1.07-4.46-.94-4.43,2.6,.11,12.6,1.73,24.97,7.88,36.14,2.15,3.9,5.47,7.53,9.06,10.17,4.38,3.21,9.87,1.34,12.92-3.32-1.88,.88-3.75,1.75-5.63,2.63,5.53-5.86,4.94-10.89-.65-15.98-3.36-3.06-6.1-7.36-7.73-11.63-1.92-5.05-3.18-10.66-3.22-16.04-.1-11.54,.53-23.17,11.79-30.49,2.75-1.79,3.19-4.52,2.16-7.29-.76-2.06-2.23-3.86-3.92-6.68,3.49,1.82,6.3,3.29,9.09,4.75Zm119.01-245.78c-4.12-.48-3.74,2.07-3.74,4.44-.1,69.59-.23,139.19-.24,208.78,0,1.89-1.73,5.45,1.99,5.49,4,.04,2.29-3.69,2.29-5.7-.03-69.45-.17-138.9-.3-208.34,0-1.57,0-3.15,0-4.66Zm-164.23,81.11c-.05-.68-.11-1.36-.16-2.04-46.83,2.6-93.65,5.21-140.48,7.81,10.27,2.82,20.44,4.95,30.7,6.43,5.81,.84,11.86,1.41,17.64,.72,20.55-2.45,41.03-5.45,61.53-8.32,10.27-1.44,20.51-3.07,30.77-4.61Zm-20.15,129.74c-.49-.16-.88-.34-1.29-.42-20.87-4.4-41.94-1.02-62.91-1.43-.97-.02-2.78,2-2.83,3.13-.21,4.77,.24,9.57,.17,14.35-.06,3.74,1.41,5.1,5.2,4.99,12.76-.37,25.53-.47,38.3-.69,6.81-.12,7.31-.67,7.46-7.57,.06-2.99,.27-5.98,.42-8.97,.59-.02,1.17-.04,1.76-.06,.35,2.61,.88,5.22,1,7.84,.33,7.23,.48,7.46,7.8,7.58,1.52,.03,3.05,0,4.92,0v-18.74Zm51.88-187.78l-1.22-.15c-.2,.73-.52,1.45-.58,2.2-1.15,13.01-2.39,26.01-3.36,39.03-.62,8.33-2.81,11.21-10.9,11.48-27.58,.9-55.18,1.58-82.77,2.25-4.5,.11-6.64-2.09-6.66-6.67-.02-4.5,.22-9,.47-13.49,.44-7.91,.98-15.81,1.48-23.72l-1.84-.49c-.53,1.38-1.43,2.74-1.53,4.16-.77,10.57-1.38,21.15-2.06,31.73-.36,5.57-3.26,8.87-8.46,9.22-19.12,1.27-38.25,2.51-57.38,3.61-7.34,.42-8.63-1.06-8.11-8.52,.67-9.7,1.52-19.4,2.14-29.1,.24-3.73,.04-7.48,.04-11.22-.84,1.92-1.25,3.87-1.39,5.84-.84,11.73-1.61,23.47-2.43,35.2-.54,7.72,1.57,10.07,9.37,9.61,22.6-1.35,45.18-3.29,67.8-4.21,30.48-1.24,60.98-1.73,91.47-2.56,8.3-.23,11.66-3.44,12.39-11.8,.88-9.97,1.72-19.95,2.56-29.93,.35-4.15,.65-8.31,.98-12.46Zm-59.66,238.72c-.82,18.26-1.62,36.18-2.42,54.08,1.57-.49,3.93-1.14,6.21-1.97,6.56-2.4,7.99-4.54,7.96-11.67-.03-8.12-.04-16.24-.1-24.36-.06-6.58-4.93-13.39-11.65-16.08Zm200.19,48.54c-4.05,.7-8.28,1.58-12.56,2.12-2.71,.34-5.51,.05-8.23,.33-1.13,.11-2.8,.69-3.17,1.53-2.47,5.53-4.65,11.19-6.86,16.66h38.7c-2.76-7.24-5.49-14.39-7.88-20.63Zm88.16-4.7l-.48,.06c.47,2.53,.63,5.18,1.5,7.58,1.34,3.7,2.19,8.68,7.19,8.65,4.89-.03,6.13-4.77,7.24-8.6,4.44-15.29,4.18-30.97,3-46.6-.49-6.44-2.05-12.84-3.62-19.13-.96-3.84-2.26-8.86-6.94-8.93-4.81-.07-5.85,5.14-7.04,8.86-3.81,11.86-4.46,24.17-4.35,36.52,.01,1.38,.99,2.75,1.53,4.13,.48-.1,.97-.2,1.45-.31,.22-1.5,.43-3,.65-4.5,1.03-7.29,1.84-14.62,3.18-21.85,.64-3.46,1.72-8.02,6.01-7.96,4.23,.06,5.21,4.61,6.07,8.07,3.56,14.3,3.56,28.7,.28,43.04-.73,3.17-2.05,6.34-3.71,9.15-2.38,4.02-4.96,4.06-7.65,.17-1.77-2.56-2.89-5.56-4.3-8.36Zm-95.7-39.34c-1.83-4.42-3.07-8.42-5.07-11.99-3.34-5.97-7.5-11.09-15.48-10.71-1.44,.07-2.94-1.06-4.41-1.66-7.49-3.03-15.12-4.47-23.19-2.11,15.87-1.06,28.59,4.19,35.48,19.05,6.5,14.04,5.77,27.99-3.64,41.05,4.85,.9,8.77,.13,11.43-4.28,3.69-6.12,4.83-12.85,5.34-20.23h-7.66c-.36-3.17-.67-5.96-1.02-9.12h8.23Zm144.33,23.43c.5-.03,1-.05,1.5-.08,.35-2.14,.75-4.27,1.05-6.42,.85-6.15,1.42-12.35,2.57-18.43,.58-3.08,1.07-7.74,5.25-7.13,2.02,.3,4.26,4.39,5.01,7.15,3.18,11.77,3.18,23.83,1.48,35.8-.66,4.63-2.24,9.26-4.17,13.54-1.75,3.88-4.52,3.87-6.81,.19-1.72-2.76-2.73-5.96-4.06-8.96,.21,3.14,.61,6.31,1.59,9.28,1.05,3.18,1.74,7.46,6.11,7.38,4.3-.08,5.32-4.3,5.99-7.54,1.4-6.78,2.46-13.67,3.06-20.57,1.24-14.25,.19-28.38-3.61-42.22-.98-3.57-1.76-8.5-6.08-8.5-4.28,0-5.17,4.94-6.24,8.47-3.44,11.37-3.87,23.1-3.72,34.87,.01,1.06,.71,2.12,1.09,3.17ZM172.36,261.43c1.39-.31,2.23-.69,3.05-.64,4.49,.27,5.47-1.94,5.34-6.11-.32-9.99-.13-20-.15-30,0-5.34,0-10.67,0-15.95-7.31-.98-8.21-.26-8.2,6.09,0,2.9-.04,5.8-.04,8.7,0,12.45,0,24.9,0,37.91Zm-31.06,90.8c-7.31,5.01-13.79,9.29-20.07,13.86-2.66,1.94-5.07,4.33-7.25,6.82-1.72,1.98-.97,3.73,1.76,3.59,8.46-.42,16.91-1.07,25.55-1.64v-22.63Zm.18,60.88c-4.39,0-8.44,.17-12.46-.03-9.15-.46-17.9,.74-26.05,5.25-1.35,.75-3.01,1.05-4.56,1.32-3.09,.53-5.04-.28-4.73-4.04,.24-2.91,.05-5.85,.05-8.77-1.01,3.47-1.26,7.01-1.84,10.5-.71,4.24,1.36,5.41,5.11,5.34,8.27-.14,16.54-.19,24.82-.24,6.49-.04,12.97,0,19.67,0v-9.32Zm149.15-38.39c1.18-3.95,1.2-8.04,3.25-10.25,13.37-14.43,29.5-24.78,48.61-29.82,5.99-1.58,12.41-1.52,18.64-2.21-5.93-.87-12.14-1.97-17.8-.67-24.35,5.57-44.45,18.56-61.02,37.09-1.41,1.57-2.06,3.82-3.45,6.5,5.15-.27,9.14-.48,11.77-.62Zm257.12,91.14c4.63-1.53,11.17,2.34,15.5-3.19,4.38-5.59,5.88-12.23,5.51-19.41h-14.77c-2.13,7.7-4.14,14.97-6.25,22.6Zm-11.37-22.4c-2.48,8.24-4.81,15.97-7.08,23.47,3.1-.16,7.01-.23,10.89-.65,1.3-.14,2.92-.82,3.68-1.81,4.79-6.2,6.19-13.36,5.93-21.02h-13.43Zm31.43-8.89c-4.47-15.18-12.35-23.27-25.89-20.07,2.34,3.57,6.11,6.99,6.92,11.02,1.88,9.25,7.8,10,15.18,9.24,1.14-.12,2.29-.12,3.79-.19Zm-426.2-53.37c-15.3,.47-30.05,.85-44.79,1.53-.94,.04-2.42,2.32-2.53,3.65-.38,4.62-.19,9.29-.39,13.93-.11,2.59,1.19,3.28,3.44,3.27,13.5-.05,27.01-.06,40.51-.1,2.41,0,3.8-1.03,3.77-3.67-.06-5.8-.02-11.59-.02-18.61Zm407.19,52.9c-2.94-11.84-8.1-23.68-24.73-21.47,3.7,6.73,7.56,13.77,11.79,21.47h12.94ZM251.89,162.47c6.3,.88,6.61,.67,6.45-5.39-.25-9.58-.55-19.16-.96-28.73-.09-1.98-.68-3.95-1.19-5.89-.9-3.42-2-6.79-2.84-10.22-.37-1.52-.31-3.15-.45-4.74l-1.02,.11v54.85Zm140.08,103.58c0,4.24,0,8.25,0,12.26q0,10.69,10.87,9.98c.25-.02,.48-.26,.77-.44v-21.8h-11.63Zm50.07-61.59l.47-1.31c-1.33-.56-2.63-1.22-3.99-1.67-7.56-2.45-15.15-4.8-22.7-7.29-4.59-1.52-6.97-.15-7.37,4.64-1.25,15.17-2.48,30.35-3.6,45.54-.44,5.97,1.24,7.73,7.28,8.33,3.54,.35,7.07,.71,11.72,1.18-4.1,3.69-7.44,6.69-10.99,9.88,4.47-.14,28.17-23.1,28.71-28.3-5.33,5.5-10.11,10.51-15.01,15.41-.83,.83-2.17,1.76-3.19,1.67-4.01-.36-7.98-1.15-11.98-1.69-3.66-.49-5.34-2.37-4.97-6.17,.5-5.05,.76-10.12,1.18-15.18,.83-9.97,1.71-19.93,2.56-29.9,.3-3.48,1.68-5.01,5.39-3.57,3.77,1.46,7.65,2.65,11.51,3.87,4.97,1.57,9.97,3.04,14.95,4.56Zm131.09,238.46c-2.4,7.74-4.61,14.9-6.78,21.91,11.93,.26,17.31-7.84,16.97-26.6-.16,1.52-.3,2.92-.49,4.69h-9.69Zm-274.14-152.16c14.14-6.03,28.01-11.94,41.89-17.86-11.63,1.51-22.92,3.92-34.2,6.38q-8.43,1.84-7.69,11.47Zm261.82,124.78c3.11,5.37,6.29,10.88,9.49,16.38,.54,.93,1.1,2.57,1.74,2.62,3.57,.26,7.17,.12,10.87,.12-3.97-14.15-11.37-20.13-22.1-19.12Zm-125.82,65.95c-1.61,5.97-3.2,11.84-4.78,17.69h17.27c-1.89-4.67-4.22-8.92-5.27-13.45-1-4.31-2.97-5.44-7.22-4.24Zm72.27-14.45h-41.45c.54,2.26,.87,3.62,1.19,4.93,.67,.13,1.09,.3,1.51,.28,12.71-.57,25.42-1.16,38.37-1.75,.15-1.28,.29-2.52,.4-3.46Zm-122.1-201.92c-1,1.12-1.96,1.72-2.16,2.51-1.45,5.78-.28,65.33,2.16,67.99v-70.5Zm257.67,193.71c-2.72,.9-4.31,1.57-5.96,1.95-5.69,1.31-6.34,2.01-6.11,8.03,.08,2.14,.21,4.43,1.05,6.34,.85,1.93,2.59,3.46,3.94,5.17,1.5-1.76,3.83-3.3,4.34-5.32,1.32-5.11,1.83-10.43,2.74-16.18Zm-188.66-33.03c.36,.64,.72,1.29,1.09,1.93h38.1c.16-.81,.45-2.28,.94-4.78-12.65,0-24.67-.08-36.69,.12-1.16,.02-2.29,1.77-3.44,2.72Zm237.88,34.49c-3.62,.77-5.93,1.06-8.09,1.79-1.01,.34-2.48,1.54-2.47,2.32,.09,4.3,.36,8.62,1.05,12.85,.19,1.17,1.89,2.6,3.14,2.88,.72,.17,2.51-1.57,2.79-2.7,1.33-5.4,2.31-10.89,3.58-17.16Zm-295.18-195.36c3.1-2.65,8.93-63.95,6.61-69.19-2.17,22.67-4.33,45.35-6.61,69.19Zm67.3,213.06c.18,.5,.36,1,.54,1.5,11.95-.9,23.91-1.73,35.85-2.79,1.26-.11,2.4-1.62,3.6-2.48-11.98-.23-23.38,.38-34.76,1.29-1.8,.14-3.49,1.62-5.23,2.48ZM257.44,107.94l1.04-.27c-.34-5.67-.03-11.5-1.25-16.97-.82-3.65-3.45-7.14-5.99-10.08-1.67-1.93-4.62-2.63-7.58-.08,9.62,6.69,11.05,17.38,13.79,27.41Zm374.46,340.3c9.97-3.55,10.94-5.15,8.26-12.65-.43-1.2-1.66-2.11-2.51-3.15-1.14,.95-2.98,1.72-3.3,2.9-1.06,3.97-1.58,8.09-2.45,12.91Zm-360.95-9.51h-9.63v8.72c10.02,1.73,11.18,.68,9.63-8.72ZM481.49,71.26c-1.62-4.01-4.62-5.42-8.85-4.13-6.24,1.9-11.08,9.47-9.7,15.38,5.62-4.76,8.38-14.24,18.55-11.25ZM152.98,448.74v-8.21h-9.88v8.21h9.88Zm264.64-184.85l.11,1.1c.71,.08,1.42,.28,2.12,.22,11.84-.95,23.68-1.89,35.52-2.91,3.41-.29,5.67-3.39,5.81-8.88-1.12,1.76-1.48,2.79-2.2,3.38-1.67,1.35-3.42,3.35-5.32,3.57-8.34,.97-16.74,1.35-25.11,2.07-3.66,.32-7.29,.96-10.93,1.46Zm-216.79-7.38c-4.02-5.09-7.32-9.28-11.03-13.98v15.07c3.51-.35,6.76-.67,11.03-1.09Zm482.23,193.03c8.24-2.07,9.77-7.47,4.01-14-5.2,3.64-3.59,9-4.01,14Zm-230.05-18.12c11.28,2.46,32.58,2.08,35.33-.41-12.07-.05-23.72-.76-35.33,.41ZM213.68,200.73l.06-2.12c-11.67,0-23.34-.09-35.01,.1-1.67,.03-3.33,1.37-4.99,2.11,13.57-1.8,26.86,1.49,39.95-.09Zm15.48-40.02c-.61,5.69,3.57,3.28,5.76,3.53,.85,.1,1.91-1.64,2.88-2.55l-.95-.99h-7.7Zm182.43-10.63c.25-.53,.49-1.05,.74-1.58-3.79-5.26-9.4-2-14.44-2.97,1.28,3.19,1.57,3.23,6.08,1.2l1.37,2.44c.25-1.05,.47-1.92,.7-2.9,2.02,1.39,3.78,2.6,5.55,3.81Zm37.89,107.88c.07-.43,.15-.85,.22-1.28-7.11-1.19-14.21-2.39-21.32-3.58l-.27,1.63c7.12,1.08,14.25,2.15,21.37,3.23Zm141.25,240.48h7.2c-1.18-2.66-2.2-4.98-3.42-7.74-1.38,2.82-2.55,5.22-3.78,7.74ZM323.42,153.79c.58-5.07-2.43-4.83-5.4-4.51-2.87,.31-4.16,1.63-2.78,4.51h8.18Zm325.55,344.58c-1.32-2.51-2.46-4.67-3.88-7.34-.96,2.82-1.69,4.96-2.5,7.34h6.37Z"/><path d="M289.72,187.64c3.9-7.19,7.41-13.92,11.24-20.45,.59-1,2.72-1.65,4.08-1.57,32.9,1.94,65.4-2.27,97.92-6.25,2.01-.25,4-.6,6.01-.83,.85-.1,1.72-.02,3.3-.02-.51,1.68-.6,3.12-1.3,4.15-3.44,5.02-6.91,10.02-10.62,14.84-4.43,5.77-10.87,7.61-17.71,7.83-30.02,1-60.05,1.83-90.07,2.71-.53,.02-1.06-.15-2.85-.41Z"/><path d="M542.93,371.24c3.39,2.12,8.66-.83,10.82,4.74-8.27,1.14-11.14-.02-10.82-4.74Z"/><path d="M592.55,381.25c-2.44-.23-4.92-.26-7.29-.8-.87-.19-1.47-1.57-2.2-2.41,.88-.45,1.76-1.25,2.64-1.26,1.71-.02,3.54,.12,5.09,.75,1.11,.45,1.86,1.8,2.78,2.75-.34,.32-.68,.64-1.02,.97Z"/><path d="M563.79,378.06v-3.55q10.03,.8,9.82,4.6c-3.12-.33-6.24-.66-9.82-1.05Z"/><path d="M610.49,383.53c-2.93-.32-5.84-.64-8.73-.96-.82-3.49,1.16-3.48,3.31-3.33,4.84,.34,5.61,.87,5.41,4.28Z"/><path d="M628.01,384.62c-3.08-.15-6.97,2.18-9.03-3.07,3.73,.84,7.53-1.41,9.03,3.07Z"/><path d="M644.86,386.91c-2.64,0-4.77,.14-6.87-.08-.67-.07-1.23-1.11-1.84-1.71,.67-.53,1.39-1.56,1.99-1.5,2.39,.26,5.77-1.12,6.73,3.29Z"/><path d="M650.83,385c3.44,.36,5.34,.34,7.09,.84,.66,.19,.98,1.58,1.46,2.42-2.08,.11-4.19,.43-6.24,.2-.64-.07-1.13-1.61-2.31-3.47Z"/><path d="M665.97,386.96c3.57,.27,6.52-.69,8.45,3.42-3.44-.33-6.69,1.59-8.45-3.42Z"/><path d="M680.98,388.31c2.1,.65,4.2,1.29,6.3,1.94l-.53,1.56c-2.49,.32-5.23,1.4-6.56-1.87,.26-.54,.53-1.08,.79-1.62Z"/><path d="M692.49,390.41c1.3,0,2.05-.17,2.67,.04,1.43,.48,2.79,1.15,4.18,1.74-.41,.48-1.07,1.44-1.21,1.37-1.8-.89-5.11,1.14-5.65-3.14Z"/><path d="M440.57,360.98c1.09-3.64,3.55-6.24-.25-8.31l1.94-3.45,1.24,.47c.22,3.04,.59,6.08,.52,9.12-.01,.6-1.75,1.15-3.45,2.18Z"/><path d="M202.78,411.04v-114.88c3.27-.66,3.42-.66,3.44,2.43,.09,10.89,.03,21.79,.08,32.68,.11,25.14,.25,50.27,.39,75.41,0,1.41,.19,2.81,.29,4.22h1.1c0-2.08,0-4.14,0-6.2-.05-38.07-.1-76.14-.13-114.2,0-8.48,1.12-9.52,9.42-9.87,9.14-.38,18.28-.87,27.4-1.51,9.53-.67,13.93,3.08,13.91,12.55-.05,34.73-.18,69.45-.31,104.18,0,2.17-.16,4.36-.51,6.5-.96,5.82-4.43,9.67-10.35,9.98-11.88,.64-23.8,.71-35.7,.93-16.27,.3-32.54,.57-48.81,.73-8.48,.09-12.85-3.77-14.04-12.19-.28-2-.26-4.06-.26-6.09,0-31.24-.04-62.48,.07-93.72,.01-3.74,.5-7.55,1.34-11.19,1.3-5.59,4.11-8.03,9.7-8.26,11.47-.47,22.95-.59,34.42-.86,3.32-.08,5.54,1.18,5.89,4.78,.25,2.59,.75,5.18,.76,7.77,.1,36.76,.13,73.52,.21,110.27,0,2.2,.23,4.39,.36,6.59,.44-.02,.89-.04,1.33-.05Zm28.42-.67l.8,.07v-124.41h-.8v124.34Zm-16.55,.26l.87,.06v-126.03h-.87v125.97Zm-34.9,.37h.56v-124.98h-.56v124.98Zm-6.89-124.23h-.77v124.46h.77v-124.46Zm15.22,124.4l.79-.06v-124.48h-.79v124.54Zm-31.83-123.06h-.74v121.56h.74v-121.56Zm83.51-2.07h-.58v124c.19,0,.39,0,.58,0v-124Zm-43.22-1.38l-.84,.07v125.97h.84v-126.04Zm50.84,124.78l.55,.04v-125.3h-.55v125.26Zm-23.97-124.23h-.37v124.25h.37v-124.25Zm-59.26,2.57l-.43-.13v123.31h.43v-123.18Zm91.7-1.19l-.66-.16v118.24h.66v-118.08Z"/><path d="M387.18,479.02c-4.81-8.64-3.39-12.88,4.94-14.75,4.98,6.82,3.55,11.07-4.94,14.75Z"/><path d="M396.83,410.9c1.61,2.17,3.46,3.85,4.19,5.91,.73,2.07,1.05,4.83,.26,6.76-.89,2.19-3.19,2.98-4.93,.08-.74-1.24-1.66-2.37-2.4-3.61-3.03-5.11-2.65-6.25,2.87-9.15Z"/><path d="M398.55,480.19c6.06,3.03,6.35,3.77,4.2,8.63-.46,1.05-.74,2.25-1.44,3.11-.97,1.18-2.26,2.1-3.41,3.13-.91-1.62-2.75-3.39-2.53-4.84,.52-3.38,2.03-6.61,3.18-10.02Z"/><path d="M327.96,379.47c0,4.51-.12,8.71,.04,12.9,.1,2.59-.91,3.78-3.44,3.81-13.18,.18-26.36,.45-39.53,.42-1,0-2.71-2-2.84-3.22-.4-3.58-.37-7.24-.06-10.84,.09-1.09,1.65-2.93,2.55-2.94,14.16-.19,28.32-.13,43.28-.13Zm-4.39,13.6v-10.59h-38.81v10.59h38.81Z"/><path d="M420.89,430.91c-.35,3.49-3.79,5.3-6.94,3.67-.5-.26-1.02-.64-1.54-.65-2.34-.05-4.72,.22-7.01-.13-.43-.07-1.16-3.11-.66-3.56,1.82-1.62,4.1-2.72,6.54-4.22,.83,2.34,1.22,3.45,2.01,5.69,.29-2.06,.41-2.95,.68-4.89,2.57,1.53,4.79,2.86,7.02,4.18,0,0-.09-.1-.09-.1Z"/><path d="M471.33,251.74c-8.03,0-15.42-.05-22.81,.03-3.2,.03-3.37-1.95-3.35-4.33,.05-9.88,.07-19.75,.08-29.63,0-7.55,.08-15.11-.08-22.66-.06-2.62,.98-3.86,3.42-3.92,6.38-.16,12.78-.41,19.15-.15,1.24,.05,3.42,2.19,3.44,3.38,.22,18.72,.15,37.44,.15,57.28Zm-23.89-4.17h21.01c0-17.71,.05-34.95-.15-52.19-.01-.94-2.09-2.59-3.28-2.67-4.62-.31-9.28,0-13.92-.18-2.85-.11-3.81,.91-3.77,3.75,.15,8.99,.09,17.99,.1,26.99,0,8.09,0,16.19,0,24.3Z"/><path d="M138.98,384.51v16.55c-5.08,0-9.82-.07-14.56,.02-8.26,.15-16.52,.29-24.77,.65-2.74,.12-4.09-.63-4.05-3.52,.07-4.45,.02-8.89,.02-13.69h43.36Zm-40.43,13.52h36.93v-10.54h-36.93v10.54Z"/><path d="M315.72,151.37h6.35c.01,.38,.02,.75,.03,1.13h-6.25l-.13-1.13Z"/></svg>