<?xml version="1.0" encoding="UTF-8"?><svg id="a" xmlns="http://www.w3.org/2000/svg" viewBox="0 0 800 600.7"><path d="M246.56,484.67c32.41-.58,65.55-1.17,98.45-1.76-3.8-6.93-7.41-13.62-11.2-20.22-.46-.8-1.91-1.43-2.92-1.44-24.85-.34-49.71-.62-74.56-.72-1.35,0-3.17,1.33-4,2.57-5.82,8.67-12.59,16.36-22.19,20.86-3.62,1.69-7.74,2.93-11.7,3.13-7.51,.38-15.31,1-22.55-.55-13.37-2.85-22.26-12.4-29.25-23.61-1.63-2.61-3.25-3.41-6.17-3.42-12.22-.05-24.44-.37-36.66-.57-6.59-.11-10.24-3.52-10.15-10.18,.14-10.43,.54-20.86,.95-31.29,.42-10.42,1.04-20.83,1.48-31.25,.3-7.2,2.92-9.99,10.17-10.63,2.55-.23,5.09-.61,7.87-1.2-4.35-.29-6.44-2.25-5.67-6.61,.7-3.91-.28-6.66-4.92-6.82-.73-.02-1.43-.57-2.8-1.15,3.5-.9,6.34-1.64,9.19-2.37l-.14-.73c-.77,0-1.54,0-2.31,0-9.28-.02-7.92,1.37-8.01-7.99-.2-21.52,2.98-42.31,13.58-61.77-1.57-.65-2.93-.83-3.69-1.6-1.3-1.33-3.17-3.02-3.17-4.56,.05-16.48,.24-32.96,.81-49.42,.15-4.26,3.12-7.47,7.24-8.9,2.82-.97,5.83-1.5,8.8-1.93,4.04-.58,7.57-1.41,6.03-7.03-.59-.05-1.66-.08-2.72-.24-2.36-.35-3.36-1.37-2.3-3.93,3.69-8.83,7.07-17.79,10.93-26.54,3.1-7.02,9.81-8.79,16.56-9.78,26.55-3.9,53.11-7.66,79.68-11.41,21.69-3.06,43.39-6.03,65.08-9.04,.14-.02,.27-.03,.41-.04,9.84-1.04,13.19,2.52,11.62,12.31-1.38,8.65-2.77,17.3-4.04,25.96-.15,1.01,.41,2.13,.64,3.2,.49-.06,.98-.12,1.48-.18,.5-3.06,1.18-6.1,1.45-9.18,.55-6.34,3.71-11.11,8.72-14.67,16.46-11.7,34.61-19.81,54.07-25.07,.65-.18,1.28-.42,2.37-.79-.75-1.28-1.32-2.42-2.05-3.46-.69-.98-1.53-1.85-2.71-3.25,4.86,.78,7.06,4.07,8.78,7.31,6.22,11.72,12.19,23.58,18.1,35.46,1.94,3.91,3.27,8.12,5.18,12.05,.51,1.06,2.12,2.26,3.21,2.25,9.46-.11,18.91-.48,29.01-.79-2.9-10.32-5.38-20.22-8.47-29.93-3.84-12.1-7.94-24.14-12.38-36.03-3.12-8.35-5.75-9.45-14.55-7.75-30.3,5.89-59.23,16.25-88.17,26.67-7.23,2.6-15.11,3.6-22.78,4.76-20.17,3.06-40.4,5.76-60.59,8.67-17.88,2.58-35.76,5.26-53.63,7.91-6.06,.9-12.12,1.82-18.17,2.74l-.43-1.17c6.67-3.27,13.21-6.82,20.02-9.74,17.38-7.47,35.33-13.33,53.93-16.86,3.82-.72,8.01,.53,12.03,.86,1.47,.12,2.98,.49,4.4,.27,21.64-3.39,43.39-6.22,64.85-10.5,18.46-3.68,36.52-9.35,54.88-13.56,12.66-2.9,25.51-4.95,38.33-7.08,8.61-1.43,10.42-.15,13.5,8.09,2.05,5.48,3.99,11,6.12,16.88,6.66-.83,13.31-1.53,19.91-2.55,3.78-.58,7.02-.3,10.51,1.76,60.61,35.82,121.31,71.5,181.98,107.21,16.06,9.45,32.14,18.84,48.14,28.38,1.15,.68,2.43,2.35,2.44,3.57,.12,44.36,.09,88.72,.07,133.07,0,.38-.18,.77-.34,1.44h-35.14c7.32,1.9,5.95,7.79,6.94,13.08,2.6,13.85,.94,27.71,1.15,41.56,.13,8.16-.06,8.21-8.42,8.2-2.52,0-5.03-.32-8.67-.58,.88-.39,.51-.35,.41-.16-4.85,8.56-12.24,10.99-21.79,10.38-11.48-.73-23.04-.22-34.56-.44-2.27-.04-4.57-.82-6.79-1.48-3.62-1.07-3.6-1.15-7.32,2.43,3.54,.88,6.59,1.64,9.65,2.4l-.05,.89c-2.76,.36-5.52,.88-8.29,1.05-14.93,.93-29.85,2.03-44.79,2.59-32.77,1.23-65.55,2.53-98.34,3.08-20.71,.35-41.44-.72-62.17-.94-28.55-.3-57.11-.34-85.67-.61-14.27-.13-28.55-.51-42.82-.83-1.01-.02-2.16-.31-2.97-.87-2.82-1.95-5.52-4.07-7.97-5.9Zm267.86-1.64h36.73c-3.57-6.12-6.91-12.01-10.44-17.77-.77-1.25-2.33-2.98-3.42-2.9-3.05,.2-6.66-1.95-9.01,2.42-2.57,4.76-5.88,9.14-9.07,13.54-1.29,1.79-3.12,3.19-4.72,4.75h-24.13v-.04h24.06Zm-223.56-90.04c-5.3-.18-7.76,2.61-6.18,7.02,.36,1,.82,1.97,1.23,2.96-4.8-3.98-4.16-9.97,1.56-12.28,3.65-1.47,7.58-2.19,11.35-3.39,.8-.25,1.41-1.1,2.11-1.67-.23-.46-.46-.93-.69-1.39-4.92,1.37-9.97,2.41-14.72,4.23-2.55,.97-5.58,2.78-6.69,5.05-4.42,9.07-8.16,18.47-12.16,27.75l1.17,.84c9.27-2.2,18.4-4.88,26.51-10.14,1.69-1.1,3.33-3.22,3.77-5.15,1.39-6.05,2.19-12.24,3.32-18.97-4.85,1.25-8.6,2.22-12.69,3.28,1.03,.91,1.58,1.4,2.12,1.88Zm-96.97-119.85c1.45,.07,2.9,.15,4.61,.24,.51-13.05,1-25.63,1.48-38.22,.12-3.23-1.22-5-4.64-5.52-4.72-.73-9.35-1.98-14.04-2.93-7.46-1.5-14.93-2.93-22.71-4.46-3.51,18.16-6.94,35.88-10.46,54.11,3.63-.81,6.67-1.13,9.44-2.17,12.07-4.53,24.26-2.27,36.48-.94h-9.73c.65,1.53,1.01,2.38,1.45,3.42-1.42-.31-2.35-.73-3.26-.68-10.78,.55-21.55,1.12-32.32,1.84-1.07,.07-2.06,1.19-3.09,1.82l.51,1.17c16.99-1.45,33.99-2.9,52.2-4.46-2.7-1.47-4.3-2.34-5.91-3.22Zm170.24-76.15c.78,.66,1.56,1.32,2.35,1.98,.41,2.68,1.34,5.39,1.13,8.02-1.54,20.1-3.21,40.19-5.04,60.26-.78,8.5-1.85,9.5-10.52,9.41-4.88-.05-7.56,1.78-9.18,6.29-.71,1.97-2.37,4.47-4.14,5.03-5.28,1.66-10.82,2.48-16.4,3.66v-10.08c4.49-.22,8.72-.65,12.95-.56,3.07,.07,4.38-1.16,4.74-4.17-3.46,.25-6.72,.63-9.99,.69-7.06,.14-8.63-1.35-7.82-8.49,1.58-14.02,3.53-28.01,5.3-42.01,1.09-8.64,2.15-17.29,3.28-26.4-4.29,.23-3.38,3.37-3.65,5.3-1.39,10.04-2.66,20.1-3.81,30.17-1.6,14.02-3.33,28.02-4.48,42.08-.89,10.94-1.05,21.94-1.41,32.92-.44,13.03-.84,26.07-1.09,39.11-.1,5.35,1.45,6.85,6.72,7.18,3.01,.19,6.08-.1,9.05,.33,5.05,.73,8.34-1.46,10.98-5.47,3.01-4.58,6.2-9.05,9.37-13.52,3.53-4.98,8.5-7.29,14.49-7.18,4.52,.09,9.03,.59,13.55,.92,5.14,.38,10.28,.78,15.8,1.19,.9-17.05,3.02-33.77-1.12-50-3-11.76-3.58-23.46-3.98-35.37-.56-16.87-1.5-33.72-2.27-50.58,.59,.32,1.67,.61,1.7,.96,.36,5.86,.62,11.72,.82,17.58,.57,16.82,1.13,33.65,1.64,50.47,.07,2.29,.24,4.38,2.81,5.26h-2.59c8.44,19.99,4.89,40.8,4.64,61.69,7.95,.57,15.59,.99,23.2,1.73,3.29,.32,4.9-.54,4.97-4.04,.2-8.77,.54-17.54,.86-26.31,.32-8.9-1.78-17.37-4.42-25.75-.66-2.1-1.59-3.34-4.16-3.66-3.98-.49-7.86-1.75-11.78-2.68,3.37,.48,6.74,.98,10.11,1.44,5.18,.71,5.92,.14,5.89-5.2-.04-5.76-.21-11.53-.43-17.29-.43-11.29-.94-22.59-1.43-34.35,.45,1.69,.97,2.96,1.12,4.27,.86,7.49,1.69,14.98,2.43,22.48,1.42,14.43,2.75,28.88,4.19,43.31,.4,3.94,1.46,7.85,1.57,11.79,.43,15.23,.58,30.47,.88,45.71,.11,5.47,1.44,6.3,6.04,3.54,3.77-2.26,7.33-4.87,10.99-7.32,.31,.34,.63,.68,.94,1.03-4.44,4.1-8.86,8.22-13.32,12.29-3.52,3.21-7.52,4.61-12.43,3.87-4.32-.66-8.75-.7-13.13-.85-3.73-.13-7.47-.03-11.24-.03,1.47,4.33,2.79,8.63,4.46,12.79,.37,.92,1.91,1.82,2.99,1.92,6.69,.64,13.39,1.36,20.09,1.38,2.63,0,5.75-1.12,7.82-2.76,4.82-3.83,9.17-8.26,13.66-12.51,3.79-3.58,5.41-7.97,5.4-13.25-.08-45.59-.06-91.17-.06-136.76,0-1.47,0-2.93,0-4.86-2.23,0-3.99,.15-5.72-.02-10.59-1.05-21.43-1.1-31.72-3.49-26.36-6.1-52.47-13.24-79.29-20.12,26.93,2.5,52.66,8.89,79.65,13.57-7.36-16.52-14.43-32.39-21.61-48.5-4.46,1.99-8.19,3.34-11.63,5.23-17.15,9.41-34.22,18.96-51.31,28.48-.57,.32-1.39,.76-1.49,1.27-.84,4.27-1.54,8.56-2.29,12.85,.47,.23,.94,.46,1.4,.69,.32-.61,.7-1.19,.94-1.83,1.67-4.42,5.19-5.41,9.32-4.78,7,1.08,14.01,2.2,20.94,3.66,6.46,1.36,12.83,3.18,19.24,4.79-11.07-2.12-22.12-4.33-33.22-6.31-3.98-.71-8.05-.86-12.08-1.27l-.11,1.4c2.39,.38,4.81,.64,7.16,1.2,1.53,.36,4.01,.87,4.26,1.8,1.21,4.42,4.45,3.38,7.47,3.55,3.71,.21,7.39,.8,11.09,1.22Zm109.92,156.67c75.51,14.03,150.76,28.01,226,41.98,.15-.49,.31-.75,.31-1,.03-36.52,.08-73.04-.06-109.56,0-1.43-1.54-3.43-2.9-4.18-8.62-4.76-17.43-9.2-26.12-13.84-62.39-33.27-124.77-66.57-187.15-99.85-3.22-1.72-6.47-3.36-10.07-5.23v191.67Zm84.2,52.72c-41.65-4-83.01-7.97-124.5-11.95v58.82h124.5v-46.87Zm-201.19,51.6c.15-1.6,.34-2.93,.4-4.26,.37-8.64,.89-17.27,1-25.91,.18-13.61,2.07-26.68,9.66-38.46,2.42-3.76,4.25-7.97,5.94-12.14,1.67-4.13,4.26-5.82,8.78-5.58,6.22,.33,12.47,.08,18.7,.08-2.26-13.61-4.37-15.39-17.79-14.93-.55,.02-1.1,.04-1.65,.07-3.85,.2-6.97,1.85-8.78,5.23-6.44,12.06-12.82,24.15-18.98,36.35-1.01,1.99-1.78,2.98-4.1,2.89-7.4-.31-14.81-.44-22.22-.6-1.35-.03-2.71,.17-4.06,.27,0,.45-.02,.9-.03,1.36,1.37,.15,2.73,.39,4.1,.44,7.54,.27,15.08,.58,22.63,.69,2.49,.04,3.45,1.03,3.44,3.4-.02,12.73-.01,25.45-.01,38.82h-29.86c-.02,.82-.03,1.64-.05,2.46,9.92,.06,19.85,.02,29.84,.04v3.61h-31.84c0-2.56,0-4.75,0-6.94,.05-22.51,.25-45.03,.08-67.54-.06-8.05-3.29-13.96-13.89-11.13,4.96,5.79,4.47,12.63,4.18,19.49-.92,21.94-1.75,43.88-2.67,65.82-.16,3.9,1.71,6.33,5.36,6.38,13.83,.21,27.67,.09,41.84,.09Zm-42.98-178.78c-.94,2.45-1.72,4.44-2.47,6.44-5.51,14.57-13.18,28.31-16.47,43.73-1.4,6.55-3.52,12.94-5,19.48-.71,3.14-2.44,4.42-5.39,4.46-3.21,.05-6.43,.01-9.65,.01l-.22,1.25c2.23,.72,4.42,1.91,6.69,2.07,6.97,.5,13.98,1.01,20.94,.75,7.54-.27,10.98-1.95,11.65-10.16,.13-1.63,.48-3.25,.56-4.89,.78-15.49,1.64-30.97,2.23-46.47,.29-7.69,.05-15.41,.05-22.74-27.36,11.72-57.4,9.31-86.23,14.35,27.62-2.37,55.47-2.22,83.32-8.28Zm-174.67,60.11c3.79,0,7.09,.11,10.37-.02,21.25-.83,42.5-1.69,63.75-2.57,17.82-.74,35.65-1.47,53.46-2.35,1.29-.06,3.4-1.09,3.63-2.04,1.05-4.2,1.55-8.54,2.23-12.66-7.77,0-15.15,.28-22.5-.09-6.21-.31-11.19,1.59-15.48,5.99-2.73,2.81-6.02,4.18-10.21,4.25-13.85,.23-27.71,.78-41.55,1.46-3.84,.19-6.8-.88-9.74-3.26-2.5-2.02-5.48-4.78-8.29-4.83-8.55-.15-17.12,.86-25.68,1.41v14.68Zm2.33,34.13c.57,4.04,1.18,7.52,1.53,11.03,.28,2.74,1.53,3.59,4.27,3.45,6.85-.35,13.71-.47,20.56-.55,29.76-.36,59.52-.65,89.28-1.11,1.37-.02,3.49-1.06,3.95-2.18,1.6-3.87,2.63-7.97,3.87-11.96-6.38,0-12.51,.22-18.62-.06-6.06-.27-11.3,1.34-15.89,5.28-3.07,2.64-6.67,3.29-10.69,3.26-12.07-.07-24.14-.01-36.2,.38-4.26,.14-7.68-.95-11.03-3.43-2.26-1.68-4.89-3.75-7.47-3.93-7.74-.52-15.53-.19-23.56-.19Zm-.48-10.29c4.48,0,8.57,.1,12.66-.02,32.91-.98,65.83-1.99,98.74-3.01,4.21-.13,9.81,1.15,12.24-1.03,2.65-2.39,2.37-8.04,3.36-12.27,.03-.12-.04-.27,0-.08-6.74,0-13.44,.24-20.11-.07-5.39-.25-9.98,1.27-14.08,4.57-3.89,3.14-8.28,4.31-13.3,4.36-12.62,.12-25.24,.48-37.85,1.02-3.93,.17-7.14-.76-10.31-3.04-2.74-1.96-5.82-4.42-8.93-4.69-7.73-.67-15.55-.22-23.7-.22,.49,5.48,.89,9.91,1.3,14.48Zm269.93,72.7c-.18-10.12-3.82-18.43-10.05-25.8-8.15-9.65-19.2-9.37-26.69,.83-4.45,6.07-6.35,13.06-6.66,20.43-.51,11.91,2.05,22.92,10.73,31.73,6.46,6.55,14.44,6.62,21.16,.48,8.27-7.56,11.06-17.3,11.5-27.67Zm-66.12-235.49c-.9-.26-1.79-.69-2.71-.77-9.84-.82-9.07-2.2-10.46,7.29-1.35,9.21-2.47,18.45-3.66,27.69-1.48,11.55-2.88,23.1-4.4,34.64-.45,3.4,.69,4.94,4.25,4.49,3.39-.43,6.8-.88,10.21-.98,2.72-.08,3.45-1.3,3.56-3.8,1.01-22.73,2.12-45.45,3.22-68.57Zm261.42,220.74c-1.52-3.5-2.99-7.16-4.7-10.72-2.96-6.15-6.42-11.7-14.73-10.25-.51,.09-1.09-.11-1.62-.24-5.62-1.44-8.91,.93-12.1,5.69-9.46,14.1-9.69,29.87-9.39,45.82,.02,.79,1.45,1.56,2.22,2.33,1.14-3.93,1.36-7.07,1.56-10.22,.58-9.03,1.29-17.96,5.62-26.27,6.53-12.53,3.02-10.37,17.52-9.82,2.03,.08,4.66,1.75,5.83,3.48,4.16,6.16,7.36,12.8,7.49,20.53,.1,5.76,.35,11.52,.78,17.26,.13,1.75,1.08,3.44,1.66,5.16,.48-1.78,1.35-3.55,1.38-5.33,.18-10.7,.13-21.34,5.4-31.22,4.05-7.59,3.83-7.32,12.53-7.31,5.06,0,7.5,2.36,9.19,6.45,1.33,3.22,2.62,6.45,4.31,10.59,1.35-2.68,2.28-4.44,3.13-6.24,.93-1.98,1.65-4.06,2.72-5.96,.61-1.08,1.61-2.44,2.68-2.69,6.79-1.66,9.87,.43,12.88,6.63,4.83,9.93,4.18,20.51,4.61,31,.06,1.5,.22,3,.34,4.49,.55-.01,1.11-.02,1.66-.03,0-5.21-.3-10.45,.06-15.64,.74-10.55-3.05-19.83-7.42-29.03-1.11-2.34-2.61-3.48-5.37-3.53-10.65-.2-8.75-1.77-13.74,8.25-.47,.94-.79,1.95-1.21,3.01-1.97-3.64-3.76-7.31-5.92-10.75-.78-1.24-2.35-2.49-3.73-2.73-3.5-.61-7.11-.94-10.65-.8-1.59,.06-3.8,1.11-4.58,2.41-3.08,5.11-5.7,10.5-8.43,15.69Zm-348.35-23.1c-10.89-.13-21.29-1.56-30.09,5.89-1.29,1.09-3.56,1.36-5.39,1.4-12.63,.3-25.27,.29-37.89,.71-4.65,.16-8.55-.82-12.19-3.75-1.86-1.5-4.2-3.15-6.42-3.29-6.67-.43-13.39-.16-20.42-.16,.6,2.99,1.37,5.5,1.54,8.06,.22,3.31,1.58,4.34,4.91,4.3,14.83-.18,29.66-.11,44.49-.11,17.99,0,35.98,.06,53.96-.07,1.41,0,3.6-.91,4.06-1.98,1.45-3.34,2.23-6.96,3.43-11Zm139.66-51.11c-.7-3.03-1.47-5.63-1.88-8.29-.36-2.35-1.58-3.19-3.82-3.26-7.26-.24-14.51-.68-21.77-.85-6.45-.15-11.9,2.3-15.59,7.6-5.13,7.39-9.88,15.04-14.89,22.72,3.94,2.61,7.4,4.89,10.89,7.21,3.43-5.46,6.61-10.88,10.14-16.06,4.71-6.91,11.04-10.81,19.8-10.01,5.56,.51,11.16,.63,17.12,.94Zm76.85,12.76c-.39,.44-.78,.89-1.18,1.33,.99,.8,1.88,2.1,2.98,2.32,6.43,1.25,12.91,2.26,19.38,3.34,19.13,3.2,38.26,6.41,57.39,9.6,17.11,2.85,34.22,5.65,51.32,8.53,20.19,3.41,40.37,6.89,60.56,10.33,11.65,1.98,23.31,3.92,35.08,5.9,.79-4.09-2.39-3.5-4.08-3.81-10.63-1.91-21.3-3.54-31.94-5.36-26.53-4.54-53.04-9.15-79.57-13.7-22.08-3.78-44.17-7.52-66.27-11.24-14.55-2.45-29.1-4.83-43.66-7.24Zm-225.43,63.4c-7.09-.98-13.55-.2-19.54,3.7-1.69,1.1-4.16,1.38-6.27,1.38-14.55,0-29.09-.14-43.64-.35-1.85-.03-4.16-.2-5.45-1.27-6.59-5.46-14.18-3.85-21.65-3.81,1.52,9.25,2.22,9.85,11.18,9.87,24.43,.06,48.85,.11,73.28,.18,8.5,.02,9.55-.79,12.08-9.7ZM474.88,152.76l-1.45,.79c1.02,1.54,1.74,3.51,3.14,4.54,2.4,1.76,5.26,2.89,7.89,4.34,58.57,32.14,117.13,64.3,175.69,96.44,2.55,1.4,5.12,2.76,7.68,4.14,.18-.34,.36-.69,.55-1.03-64.5-36.4-129-72.81-193.5-109.21Zm-128.06,242.02c.81-6.18,1.64-12.48,2.53-19.28h-25.36v19.28h22.82Zm95.78,86.37c-3.16-4.31-7.11-7.96-8.81-12.46-2.2-5.84-5.67-7.23-11.09-6.41-.8,.12-1.68-.15-2.45,.06-.85,.23-1.96,.59-2.34,1.25-3.28,5.75-6.43,11.59-9.7,17.56h34.38Zm-306.91-60.84c-2.08-9.81-3.86-18.48-5.81-27.11-.27-1.22-1.07-2.8-2.07-3.28-3.11-1.5-6.44-2.55-9.69-3.77l-.69,.87c.72,1.11,1.44,2.22,1.82,2.83-.61,1.01-1.47,1.8-1.52,2.64-.34,5.06-.8,10.14-.55,15.18,.1,1.95,1.49,4.65,3.12,5.57,4.69,2.65,9.78,4.57,15.39,7.07Zm.25-139.56l.87,.13c3.5-18.69,7-37.38,10.62-56.68-4.26,.81-7.71,1.46-11.48,2.18v54.38Zm81.44,166.44h-34.93v9.51c11.63,2.26,23.14,.92,34.93,1.33v-10.84Zm132.35-30.5c.37-3.86,.72-7.52,1.11-11.65h-27c0,3.19-.18,6.2,.11,9.17,.09,.9,1.48,2.36,2.3,2.38,7.74,.18,15.49,.11,23.48,.11Zm65.42-30.01c1.36,3.14,2.5,6.2,3.96,9.11,4.65,9.26,6.54,18.99,6.1,29.36-.36,8.62-.09,17.26,.04,25.9,.01,.96,.89,1.92,1.36,2.87,.6-.97,1.67-1.92,1.72-2.92,.31-6.43,.08-12.9,.62-19.31,1.17-13.99-.24-27.46-5.75-40.54-1.63-3.87-3.39-5.6-8.05-4.47Zm11.71-37.63c.02-8.2-1.1-9.61-8.57-10.61-6.97-.93-13.97-1.65-21.25-2.49,.76,3.44,1.23,6.27,2.06,9,.3,.98,1.37,2.37,2.19,2.44,8.42,.68,16.85,1.13,25.58,1.66Zm-161.47,91.56c6.94,0,13.9,.14,20.86-.04,6.33-.17,10.36-4.05,11.58-10.53-6.47,.63-12.97,1.77-19.48,1.75-7-.02-10.61,3.72-12.96,8.82Zm24.65-266.78c9.89-1.2,18.97-2.38,28.07-3.39,5.45-.61,6.17-1.33,5.95-7.62-6.94,.8-13.84,2.08-20.77,2.25-6.27,.15-9.5,3.88-13.25,8.77Zm307.44,269.99c.11-6.6-.7-13.92-5.34-20.18-3.91-5.28-9.4-5.1-13.2,.26-7.25,10.22-7.37,31.35-.23,41.52,4.18,5.96,9.95,5.88,13.84-.25,3.96-6.24,5.09-13.19,4.93-21.35Zm-457.02-3.63l.78-1.26c-2.53-2.62-4.63-6.53-7.69-7.56-4.48-1.51-9.66-.97-14.81-1.32,.7,3.98,1.7,7.65,5.72,8.42,5.25,1,10.66,1.18,16,1.72Zm521.36,8.24c-1.79-6.95-2.88-13.72-5.33-19.96-2.22-5.65-7.76-5.66-10.97-.4-1.53,2.51-2.61,5.43-3.26,8.3-2.26,9.99-2.08,19.89,3.11,29.04,2.92,5.15,7.87,5.22,10.46-.05,2.59-5.28,4-11.13,6-16.93Zm-48.15-1.69c-.5,5.97,.96,12.29,4.36,18.09,3.32,5.66,8.66,5.87,11.81,.18,6.84-12.38,6.43-25.21,.47-37.7-3.12-6.55-8.57-6.39-12.48-.24-3.67,5.78-4.26,12.28-4.17,19.67Zm-265.82-74.35c-8.53-6.29-19.62-8.68-28.2-5.65,2.07,2.03,3.8,5.23,5.79,5.4,7.42,.62,14.92,.25,22.42,.25ZM170.5,182.1c-11.07,.07-15.92,2.73-17,9.28,5.03-.69,10.01-1.27,14.95-2.14,.8-.14,1.75-1.45,1.97-2.37,.33-1.41,.09-2.95,.09-4.77Zm113.73,89.65c-16.61-3.41-33.24-6.33-50.13-1.49,16.85-3.53,33.42,.83,50.13,1.49Zm23.12,96.34c-9.21,1.36-18.2,2.68-27.19,4.01,7.51,.14,15.01-.11,22.5-.6,2.15-.14,4.66-.56,4.69-3.41Zm177.06-219.95c-2.06-.96-4.06-1.9-6.2-2.91-.65,6.28-.51,6.47,5.44,7.81,.24-1.54,.47-3.06,.76-4.9Zm2.86,1.83c-.63,5.43,1.05,7.21,6.1,6.66,1.23-5.25-3-5.35-6.1-6.66Zm72.29,247.59h5.36v-5.2h-5.36v5.2Zm-335.11-124.06l.33,.95,23.38-2.94-.12-.99c-7.86,.99-15.72,1.99-23.58,2.98Z"/><path d="M364.12,196.98c1.81,.79,3.67,1.47,5.41,2.39,2.46,1.3,4.69,3.15,7.26,4.1,6.71,2.47,8.35,4.39,8.65,11.71,.32,7.82,.56,15.64,.82,23.47,.28,8.37,.59,16.74,.78,25.11,.15,6.36-1.37,8.03-7.58,8.9-5.53,.78-11.06,1.61-15.75,2.29,1.18-9.41,2.66-18.8,3.46-28.24,1.17-13.81,1.83-27.65,2.72-41.48,.18-2.83-.5-5.16-3.43-6.28-.78-.66-1.56-1.32-2.35-1.98Zm1.98,73.6c3.31-.43,6.53-.81,9.75-1.27,5.84-.82,6.74-1.74,6.62-7.64-.3-14.27-.71-28.55-1.11-42.82q-.27-9.57-9.29-12.66c-.09-.03-.22,.04-.41,.09-1.85,21.35-3.7,42.74-5.57,64.3Z"/><path d="M419.72,206.93c4.68,1.42,7.26,4.96,8.45,9.31,5.13,18.83,10.22,37.68,14.97,56.61,1.52,6.06,1.94,12.39,2.87,18.59l-1.08,.26c-8.39-28.22-16.78-56.44-25.2-84.77Z"/><path d="M419.52,214.54c-6.38-2.03-12.64-4.03-18.9-6.02,6.41,1.68,13.53,1.29,18.9,6.02Z"/><path d="M394.48,313.69c0,4.47,0,8.68,0,12.9,0,.14,.02,.29-.03,.41-2.38,5.21-6.57,1.72-9.91,1.92-2.53,.15-4.76-.77-3.59-4.19,.13-.39,.27-.78,.36-1.18,2-9.45,2.73-10.02,13.18-9.86Z"/><path d="M434.94,446.86v-42.56c17.3,2,34.13,3.94,51.24,5.91v35.13c-17.22,.51-34.17,1.01-51.24,1.52Zm10.24-29.85v14.19h13.25v-14.19h-13.25Z"/><path d="M406.53,435.78c-1.1,8.37-4.28,14.38-9.78,15.92-1.81,.5-4.48,.18-5.99-.87-9.52-6.59-8.28-23.47-1.91-29.22,4.14-3.74,9.93-3.24,12.83,1.86,2.16,3.79,3.27,8.18,4.85,12.3Z"/><path d="M372.57,431.75c4.14,.23,4.55,2.45,4.7,4.71,.21,3.03-2.36,2.97-4.21,3.24-2.45,.36-4.21-1.13-3.71-3.5,.34-1.63,2.09-2.97,3.21-4.44Z"/><path d="M376.33,427.37c-2.44-2.61-4.46-3.99-5.14-5.85-.29-.79,2.23-2.61,3.47-3.96,1.43,1.5,3.3,2.81,4.12,4.6,.4,.86-1.16,2.62-2.45,5.22Z"/><path d="M379.27,447.68c1.29,5.73,.73,7.31-3.02,7.45-1.18,.04-3.41-1.97-3.51-3.17-.38-4.82,3.79-3.23,6.53-4.28Z"/><path d="M388.25,411.83c-2.24,.84-3.99,2.04-4.62,1.61-1.55-1.07-2.75-2.8-3.69-4.49-.15-.26,2.48-2.6,2.68-2.45,1.76,1.31,3.25,2.97,5.62,5.32Z"/><path d="M384.01,457.63c1.46,1.86,3.11,3.09,2.93,3.92-.26,1.2-1.73,2.71-2.91,2.95-.89,.18-3.16-1.66-3.03-2.19,.34-1.44,1.61-2.66,3.02-4.68Z"/><path d="M397.81,461.53c-1.75,1.77-3.5,3.54-5.25,5.31-.32-.22-.64-.45-.95-.67v-5.58h5.66l.54,.94Z"/><path d="M390.67,411.99v-6.79c3.12-.06,4.71,1.63,4.56,4.1-.05,.85-2.55,1.56-4.56,2.69Z"/><path d="M387.57,448.69c.47,1.12,.94,2.23,1.42,3.35,.53,1.24,1.06,2.49,1.59,3.73-.59,.2-1.47,.74-1.72,.53-1.25-1.03-2.56-2.12-3.38-3.48-.39-.64,.26-1.91,.44-2.89,.55-.41,1.1-.82,1.65-1.24Z"/><path d="M402.03,413.75c.74,2.99,1.28,5.18,1.82,7.38-6.1-2.83-6.16-3.11-1.82-7.38Z"/><path d="M382.08,439.13c.84,2.25,1.67,4.51,2.74,7.37-1.04,.17-2.89,.55-2.91,.47-.61-2.44-1.04-4.93-1.49-7.41,.56-.14,1.12-.29,1.67-.43Z"/><path d="M405.17,445.6c2.85,4.13,2.17,5.98-2.74,7.85,1-2.87,1.73-4.96,2.74-7.85Z"/><path d="M385.05,421.9c.15-1.62,.3-3.23,.45-4.85l3.37,.54c-.55,1.58-1.11,3.15-1.66,4.73l-2.16-.42Z"/><path d="M381.9,428.47c.23,2.08,.46,4.17,.69,6.25-.84-.02-1.67-.04-2.51-.06,.16-2.07,.33-4.14,.49-6.22l1.33,.02Z"/><path d="M406.57,430.07c-.52-1.62-1.1-3.22-1.52-4.87-.13-.49,.04-1.22,.35-1.61,.23-.29,1.25-.44,1.36-.28,.72,1.08,1.64,2.22,1.8,3.43,.15,1.11-.57,2.33-.91,3.5-.36-.06-.72-.11-1.08-.17Z"/><path d="M394.04,418.56c-1.19-1.26-2.32-1.94-2.52-2.83-.12-.56,1.39-2.15,1.74-2.03,1.09,.38,1.98,1.35,2.95,2.09-.59,.75-1.17,1.5-2.17,2.78Z"/><path d="M406.97,441.28c.21-2.02,.43-4.04,.7-6.66,3.59,2.8,2.23,4.82,.98,6.84-.56-.06-1.12-.12-1.68-.18Z"/><path d="M285.78,402.79c2.38-.32,5.72,.19,6.88-1.17,1.22-1.42,.37-4.63,.42-7.06,3.61,1.88,2.63,5.61,.66,8.1-2,2.52-5.21,2.47-7.96,.14Z"/><path d="M210.91,453.14c-1.77,1.32-2.94,2.19-4.11,3.07-.81-1.21-2.35-2.5-2.23-3.62,.15-1.49,1.59-2.86,2.47-4.28,1.12,1.4,2.24,2.79,3.87,4.83Z"/><path d="M215.58,455.79c-1.53-.12-2.68-.22-4.34-.35,1.37-2.41-2.12-6.67,3.55-7.08,.28,2.64,.5,4.73,.78,7.44Z"/><path d="M583.99,467.03c-1.81-1.49-4.35-2.61-5.32-4.53-5.87-11.61-5.52-23.52,.03-35.05,1.2-2.49,4.81-5.02,7.48-5.21,2.01-.15,5.29,2.98,6.29,5.37,5.23,12.45,5.35,24.94-1.69,36.9-1.46,2.48-3.51,4.78-6.9,2.42,2.02-1.64,4.75-2.89,5.92-5.01,5.04-9.11,4.68-18.92,2.36-28.67-.95-3.99-2.8-7.8-7.18-10.44,9.84,15.94,9.36,31.78-.98,44.22Z"/><path d="M660.11,446.37c-1.59,5.77-2.83,11.36-4.76,16.69-.61,1.69-3.15,3.86-4.65,3.75-1.86-.14-4.36-2.07-5.18-3.86-5.01-10.96-4.78-22.07,.61-32.84,2.53-5.04,7.3-5.1,9.51,.09,2.14,5.04,3,10.63,4.47,16.18Zm-10-19.21c4.77,6.33,5.66,12.65,5.78,19.22,.13,6.78-1.52,13.02-5.67,19.2,8.88-5.65,9.03-31.43-.11-38.42Z"/><path d="M633.77,445.21c-1.32,5.67-2.28,11.46-4.15,16.94-.69,2.03-3.58,4.71-5.35,4.63-2.15-.1-4.91-2.38-6.14-4.46-4.24-7.19-4.23-15.26-2.88-23.15,.72-4.18,2.27-8.5,4.55-12.05,2.71-4.23,6.23-3.72,9.11,.55,3.54,5.25,4.08,11.21,4.85,17.54Zm-9.97-19.62c7.92,11.89,7.84,31.41-.65,39.54,4.08-.7,5.88-3.04,7.03-11.31,1.41-10.17,1.66-20.27-6.38-28.24Z"/></svg>